<?xml version="1.0" encoding="utf-8"?>
<!-- Generator: Adobe Illustrator 25.4.1, SVG Export Plug-In . SVG Version: 6.00 Build 0)  -->
<svg version="1.0" id="Layer_1" xmlns="http://www.w3.org/2000/svg" xmlns:xlink="http://www.w3.org/1999/xlink" x="0px" y="0px"
	 viewBox="0 0 916.8 611.8" style="enable-background:new 0 0 916.8 611.8;" xml:space="preserve">
<style type="text/css">
	.st0{fill:#CA2418;}
	.st1{fill:#CA2519;}
</style>
<path class="st0" d="M416.1,277.4c0,18.7,0.1,37.4,0,56.2c-0.1,19.5-6.9,36.2-21.9,49.2c-12.3,10.7-27,15.8-43.1,16.8
	s-31.3-2.2-45-11c-18.9-12.2-28.4-29.9-29.3-52.2c-0.4-11.3-0.1-22.6-0.1-34c0-28.5,0-57-0.1-85.5c0-2.6,0.8-3.2,3.2-3.2
	c12.9,0.1,25.7,0.1,38.6,0c2.7,0,3.6,0.5,3.5,3.4c-0.1,37.6-0.1,75.2-0.1,112.9c0,4.3,0.1,8.6,1.3,12.8
	c3.5,11.5,13.3,17.7,25.8,16.3c13.3-1.5,21.4-10.8,21.7-25.1c0.2-7.6,0.1-15.2,0.1-22.7c0-31.4,0-62.8,0-94.2c0-2.4,0.5-3.3,3.1-3.2
	c13,0.1,25.9,0.1,38.9,0c2.7,0,3.3,0.9,3.3,3.4C416.1,237.3,416.1,257.4,416.1,277.4z"/>
<path class="st0" d="M736.6,399.8c-19.5-0.2-35.6-2.2-50.6-9.6c-6.7-3.4-12.8-7.8-18.2-13c-1.3-1.3-1.6-2-0.1-3.5
	c8.7-8.6,17.3-17.3,25.9-26c0.9-0.9,1.5-1.4,2.7-0.3c8.2,7.2,18.2,9.9,28.6,11.2c8,1,16,1.2,24-0.7c10.8-2.6,15.7-10.7,12.7-20.9
	c-1.9-6.5-7.1-8.7-13-9.7c-9.7-1.6-19.5-2.6-29.2-4.4c-13.4-2.4-25.6-7.4-34.4-18.5c-5.5-6.8-8.2-14.8-9.2-23.4
	c-1.6-12.7-0.7-25.2,5.3-36.8c7.9-15.5,20.9-24.7,37.4-28.9c22.2-5.6,44.2-4.2,65.4,4.7c7,3.1,13.3,7.3,18.7,12.7
	c1.2,1.1,1.3,1.8,0.1,3.1c-8.5,8.5-17.1,17-25.5,25.6c-0.7,0.7-1.3,1.5-2.5,0.4c-10-9.2-22.3-10.4-35.1-9.9c-4.7,0.2-9.3,1-13.3,3.7
	c-5.4,3.6-8.3,8.6-7.4,15.1s5.6,9.7,11.4,11.2c7.8,2,15.8,2.5,23.8,3.7c8.2,1.2,16.4,2.7,24.1,6c15,6.3,24,17.4,27.1,33.3
	c2.7,13.5,2.7,26.9-3.1,39.7c-6.8,15.1-19.1,24.3-34.3,29.9C756.7,398.4,745.2,400.1,736.6,399.8z"/>
<path class="st0" d="M179.7,399.7c-17.4-0.1-32.3-1.8-46.4-7.8c-8.4-3.7-16-8.8-22.6-15.3c-1.1-1.1-0.9-1.6,0.1-2.6
	c8.7-8.7,17.4-17.4,26.1-26.2c0.7-0.7,1.3-1.8,2.7-0.6c6.2,5.6,13.8,8.5,21.8,10.1c10.2,2.1,20.4,2.8,30.7,0.5
	c5.3-1.2,10.1-3.6,12.4-8.9c4.5-10.1-1.2-20-12.4-21.6c-9.8-1.4-19.7-2.7-29.5-4.4c-10.2-1.8-19.7-5.3-27.9-11.9
	c-8.4-6.8-13.1-15.8-15.1-26.3c-2.9-15.9-1.5-31.1,7.3-45.1c8.2-12.9,20.3-20.7,34.8-24.3c22.1-5.5,44-4.2,65.2,4.7
	c6.9,3,13.1,7.2,18.6,12.4c1.4,1.3,1.7,2.1,0.1,3.6c-8.4,8.3-16.7,16.6-24.9,25c-1.3,1.3-2,1.5-3.5,0.2c-7.9-7-17.5-9.1-27.7-9.3
	c-5.8-0.1-11.5-0.2-17,2.1c-8,3.4-12.4,11.4-9.9,18.7c1.8,5.3,6,8,11.1,9.2c7.7,1.9,15.7,2.5,23.5,3.6c8.3,1.2,16.6,2.7,24.4,6
	c14.4,6.1,23.5,16.7,26.7,32c2.7,12.7,3.1,25.4-1.5,37.8c-6,16-17.9,26-33.5,32.2C202.7,397.8,191.2,399.9,179.7,399.7z"/>
<path class="st0" d="M612,326.1c0,22.9,0,45.8,0,68.8c0,2.5-0.5,3.3-3.2,3.3c-13.1-0.1-26.1-0.1-39.2,0c-2.5,0-3-0.7-3-3.1
	c0.1-45.7,0.1-91.5,0-137.2c0-3.6,0-3.6-3.8-3.6c-12.9,0-25.7,0-38.6,0c-2.1,0-2.8-0.5-2.8-2.7c0.1-11.7,0.1-23.4,0-35.1
	c0-2,0.5-2.7,2.6-2.6c43.5,0.1,86.9,0.1,130.4,0c1.8,0,2.5,0.5,2.5,2.4c-0.1,11.9-0.1,23.7,0,35.6c0,2.1-0.8,2.4-2.6,2.4
	c-13.1-0.1-26.3,0-39.4-0.1c-2.6,0-3.2,0.8-3.2,3.3C612,280.3,612,303.2,612,326.1z"/>
<path class="st1" d="M450.1,305.7c0-29.6,0-59.2-0.1-88.8c0-2.6,0.8-3.2,3.2-3.2c13.1,0.1,26.1,0.1,39.2,0c2.2,0,3,0.5,3,2.9
	c-0.1,59.5-0.1,119.1,0,178.6c0,2.4-0.7,2.9-3,2.9c-13.1-0.1-26.1-0.1-39.2,0c-2.5,0-3.2-0.6-3.2-3.2
	C450.2,365.2,450.1,335.5,450.1,305.7z"/>
</svg>
